<svg id="Layer_2" data-name="Layer 2" xmlns="http://www.w3.org/2000/svg" width="40" height="40" viewBox="0 0 40 40">
  <g id="_01.facebook" data-name="01.facebook">
    <path id="Path_19219" data-name="Path 19219" d="M20,0A20,20,0,1,0,40,20,20,20,0,0,0,20,0Zm5.068,18.105-.332,2.787a.526.526,0,0,1-.526.468H21.316v8.263a.374.374,0,0,1-.368.376H18a.374.374,0,0,1-.368-.379l.016-8.261H15.455a.526.526,0,0,1-.526-.526V18.05a.526.526,0,0,1,.526-.526h2.176v-2.7C17.632,11.7,19.492,10,22.211,10h2.229a.526.526,0,0,1,.526.526v2.345a.526.526,0,0,1-.526.526H23.074c-1.479.024-1.758.732-1.758,1.789v2.329h3.242a.526.526,0,0,1,.511.589Z" fill="#eeedf0"/>
  </g>
</svg>
