<svg xmlns="http://www.w3.org/2000/svg" width="130.663" height="38.713" viewBox="0 0 130.663 38.713">
  <g id="Download_on_the_App_Store_Badge" transform="translate(0)">
    <path id="Path_1424" data-name="Path 1424" d="M126.014,38.713H4.577A4.587,4.587,0,0,1,0,34.132V4.574A4.581,4.581,0,0,1,4.577,0H126.014a4.643,4.643,0,0,1,4.649,4.574V34.132a4.65,4.65,0,0,1-4.649,4.581Z" transform="translate(0 0)" fill="#151515"/>
    <path id="Path_1425" data-name="Path 1425" d="M129.755,34.162a3.707,3.707,0,0,1-3.711,3.707H4.606A3.712,3.712,0,0,1,.89,34.162V4.6A3.716,3.716,0,0,1,4.606.89H126.043A3.711,3.711,0,0,1,129.754,4.6v29.56Z" transform="translate(-0.028 -0.029)" fill="#151515"/>
    <g id="Group_945" data-name="Group 945" transform="translate(12.381 6.017)">
      <g id="Group_944" data-name="Group 944">
        <path id="Path_1426" data-name="Path 1426" d="M29.571,19.546a5.61,5.61,0,0,1,2.672-4.708,5.747,5.747,0,0,0-4.526-2.447c-1.9-.2-3.751,1.139-4.72,1.139-.989,0-2.483-1.12-4.092-1.087a6.025,6.025,0,0,0-5.072,3.093c-2.193,3.8-.557,9.377,1.544,12.446,1.051,1.5,2.279,3.181,3.887,3.122,1.573-.065,2.16-1,4.058-1,1.881,0,2.432,1,4.072.965,1.688-.027,2.751-1.51,3.765-3.026a12.42,12.42,0,0,0,1.722-3.507A5.423,5.423,0,0,1,29.571,19.546Z" transform="translate(-12.792 -6.415)" fill="#fff"/>
        <path id="Path_1427" data-name="Path 1427" d="M26.805,10.175a5.522,5.522,0,0,0,1.264-3.958A5.626,5.626,0,0,0,24.432,8.1a5.255,5.255,0,0,0-1.3,3.811A4.647,4.647,0,0,0,26.805,10.175Z" transform="translate(-13.123 -6.217)" fill="#fff"/>
      </g>
    </g>
    <g id="Group_946" data-name="Group 946" transform="translate(41.048 17.421)">
      <path id="Path_1428" data-name="Path 1428" d="M53.284,31.076h-2.2l-1.2-3.783H45.7L44.55,31.076H42.41L46.556,18.2h2.561Zm-3.765-5.371L48.43,22.342q-.173-.515-.649-2.426h-.039q-.19.822-.612,2.426l-1.069,3.363Z" transform="translate(-42.41 -18.007)" fill="#fff"/>
      <path id="Path_1429" data-name="Path 1429" d="M64.365,26.431a5.278,5.278,0,0,1-1.28,3.745A3.744,3.744,0,0,1,60.237,31.4,2.847,2.847,0,0,1,57.6,30.081h-.039v4.892H55.5V24.959q0-1.49-.076-3.057h1.815l.115,1.472h.039a3.672,3.672,0,0,1,5.876-.364A5.117,5.117,0,0,1,64.365,26.431Zm-2.1.075a3.824,3.824,0,0,0-.612-2.236,2.113,2.113,0,0,0-1.8-.918,2.146,2.146,0,0,0-1.385.506,2.348,2.348,0,0,0-.812,1.329,2.7,2.7,0,0,0-.1.629v1.549a2.481,2.481,0,0,0,.621,1.711,2.06,2.06,0,0,0,1.614.7,2.113,2.113,0,0,0,1.815-.9A3.953,3.953,0,0,0,62.263,26.507Z" transform="translate(-42.828 -18.12)" fill="#fff"/>
      <path id="Path_1430" data-name="Path 1430" d="M75.4,26.431a5.274,5.274,0,0,1-1.281,3.745A3.741,3.741,0,0,1,71.274,31.4a2.845,2.845,0,0,1-2.636-1.318H68.6v4.892H66.535V24.959q0-1.49-.076-3.057h1.815l.115,1.472h.039A3.673,3.673,0,0,1,74.3,23.01,5.131,5.131,0,0,1,75.4,26.431Zm-2.1.075a3.824,3.824,0,0,0-.613-2.236,2.11,2.11,0,0,0-1.8-.918,2.148,2.148,0,0,0-1.386.506,2.346,2.346,0,0,0-.811,1.329,2.754,2.754,0,0,0-.1.629v1.549a2.489,2.489,0,0,0,.619,1.711,2.064,2.064,0,0,0,1.616.7,2.113,2.113,0,0,0,1.815-.9A3.953,3.953,0,0,0,73.3,26.507Z" transform="translate(-43.183 -18.12)" fill="#fff"/>
      <path id="Path_1431" data-name="Path 1431" d="M87.774,27.458a3.433,3.433,0,0,1-1.144,2.675,5.07,5.07,0,0,1-3.509,1.128,6.142,6.142,0,0,1-3.338-.8l.478-1.72a5.657,5.657,0,0,0,2.983.823,2.82,2.82,0,0,0,1.817-.527,1.719,1.719,0,0,0,.648-1.407,1.794,1.794,0,0,0-.535-1.32,4.976,4.976,0,0,0-1.777-1q-3.383-1.262-3.382-3.693a3.268,3.268,0,0,1,1.186-2.6A4.674,4.674,0,0,1,84.354,18a6.252,6.252,0,0,1,2.923.612l-.516,1.682A5.072,5.072,0,0,0,84.3,19.7a2.5,2.5,0,0,0-1.7.535,1.529,1.529,0,0,0-.516,1.166,1.574,1.574,0,0,0,.591,1.261,6.684,6.684,0,0,0,1.874.994,6.357,6.357,0,0,1,2.446,1.566A3.272,3.272,0,0,1,87.774,27.458Z" transform="translate(-43.611 -18.001)" fill="#fff"/>
      <path id="Path_1432" data-name="Path 1432" d="M94.9,23.38H92.626v4.509q0,1.72,1.2,1.72a3.67,3.67,0,0,0,.917-.1L94.8,31.08a4.675,4.675,0,0,1-1.6.228,2.476,2.476,0,0,1-1.912-.745,3.661,3.661,0,0,1-.688-2.5V23.378H89.244V21.829H90.6v-1.7l2.027-.612v2.312H94.9v1.55Z" transform="translate(-43.915 -18.05)" fill="#fff"/>
      <path id="Path_1433" data-name="Path 1433" d="M105.389,26.469a5.1,5.1,0,0,1-1.223,3.516,4.368,4.368,0,0,1-3.4,1.414,4.153,4.153,0,0,1-3.257-1.356,4.938,4.938,0,0,1-1.214-3.42,5.045,5.045,0,0,1,1.251-3.535,4.331,4.331,0,0,1,3.372-1.376,4.242,4.242,0,0,1,3.287,1.357A4.882,4.882,0,0,1,105.389,26.469Zm-2.141.067a4.178,4.178,0,0,0-.554-2.2,2.038,2.038,0,0,0-1.853-1.111,2.069,2.069,0,0,0-1.892,1.111,4.258,4.258,0,0,0-.554,2.243,4.172,4.172,0,0,0,.554,2.2,2.109,2.109,0,0,0,3.726-.019A4.192,4.192,0,0,0,103.248,26.536Z" transform="translate(-44.141 -18.12)" fill="#fff"/>
      <path id="Path_1434" data-name="Path 1434" d="M112.456,23.716a3.583,3.583,0,0,0-.65-.057,1.95,1.95,0,0,0-1.682.823,3.092,3.092,0,0,0-.516,1.834v4.873h-2.063l.019-6.363q0-1.606-.077-2.924h1.8l.076,1.777h.057a3.176,3.176,0,0,1,1.032-1.471,2.5,2.5,0,0,1,1.491-.5,3.313,3.313,0,0,1,.516.038Z" transform="translate(-44.501 -18.12)" fill="#fff"/>
      <path id="Path_1435" data-name="Path 1435" d="M121.882,26.105a4.84,4.84,0,0,1-.075.936h-6.191a2.7,2.7,0,0,0,.9,2.1,3.067,3.067,0,0,0,2.025.649,6.847,6.847,0,0,0,2.5-.439l.323,1.432a7.744,7.744,0,0,1-3.114.574,4.511,4.511,0,0,1-3.393-1.271,4.693,4.693,0,0,1-1.232-3.411,5.321,5.321,0,0,1,1.148-3.5,3.955,3.955,0,0,1,3.247-1.49,3.461,3.461,0,0,1,3.04,1.49A5.023,5.023,0,0,1,121.882,26.105Zm-1.968-.535a2.8,2.8,0,0,0-.4-1.586,1.8,1.8,0,0,0-1.644-.86,1.958,1.958,0,0,0-1.642.841,3.079,3.079,0,0,0-.611,1.6h4.3Z" transform="translate(-44.698 -18.12)" fill="#fff"/>
    </g>
    <g id="Group_948" data-name="Group 948" transform="translate(42.273 6.345)">
      <g id="Group_947" data-name="Group 947">
        <path id="Path_1436" data-name="Path 1436" d="M48.877,9.907a3.177,3.177,0,0,1-1.024,2.573,4.073,4.073,0,0,1-2.694.8,12.49,12.49,0,0,1-1.484-.075V6.978a10.949,10.949,0,0,1,1.747-.132,3.766,3.766,0,0,1,2.507.723A2.922,2.922,0,0,1,48.877,9.907Zm-1.069.028a2.313,2.313,0,0,0-.587-1.7,2.312,2.312,0,0,0-1.714-.591,4.293,4.293,0,0,0-.817.066v4.732a5.356,5.356,0,0,0,.685.028,2.4,2.4,0,0,0,1.8-.647A2.593,2.593,0,0,0,47.808,9.935Z" transform="translate(-43.676 -6.565)" fill="#fff"/>
        <path id="Path_1437" data-name="Path 1437" d="M54.761,10.959a2.5,2.5,0,0,1-.6,1.728,2.145,2.145,0,0,1-1.672.695,2.039,2.039,0,0,1-1.6-.667,2.429,2.429,0,0,1-.6-1.68A2.478,2.478,0,0,1,50.907,9.3a2.132,2.132,0,0,1,1.657-.676,2.087,2.087,0,0,1,1.615.666A2.409,2.409,0,0,1,54.761,10.959Zm-1.052.033a2.064,2.064,0,0,0-.272-1.083,1,1,0,0,0-.91-.546,1.017,1.017,0,0,0-.93.546,2.091,2.091,0,0,0-.272,1.1,2.064,2.064,0,0,0,.272,1.083,1.024,1.024,0,0,0,.92.546,1.012,1.012,0,0,0,.91-.556A2.05,2.05,0,0,0,53.709,10.992Z" transform="translate(-43.889 -6.622)" fill="#fff"/>
        <path id="Path_1438" data-name="Path 1438" d="M62.546,8.719l-1.428,4.562h-.929L59.6,11.3a14.834,14.834,0,0,1-.367-1.474h-.018a10.791,10.791,0,0,1-.367,1.474l-.628,1.981h-.94L55.935,8.719h1.042l.516,2.169q.187.769.31,1.464h.018q.113-.572.376-1.455l.648-2.178h.827l.62,2.131q.225.78.366,1.5h.028a14.352,14.352,0,0,1,.31-1.5L61.55,8.72h1Z" transform="translate(-44.07 -6.626)" fill="#fff"/>
        <path id="Path_1439" data-name="Path 1439" d="M68.065,13.278H67.051V10.665q0-1.208-.919-1.208a.915.915,0,0,0-.733.332,1.178,1.178,0,0,0-.282.782v2.706H64.1V10.02q0-.6-.037-1.306h.891L65,9.427h.028a1.465,1.465,0,0,1,.526-.551,1.714,1.714,0,0,1,.919-.256,1.456,1.456,0,0,1,1.062.413,2.008,2.008,0,0,1,.526,1.512Z" transform="translate(-44.331 -6.622)" fill="#fff"/>
        <path id="Path_1440" data-name="Path 1440" d="M71.054,13.212H70.041V6.556h1.013Z" transform="translate(-44.523 -6.556)" fill="#fff"/>
        <path id="Path_1441" data-name="Path 1441" d="M77.11,10.959a2.5,2.5,0,0,1-.6,1.728,2.147,2.147,0,0,1-1.672.695,2.036,2.036,0,0,1-1.6-.667,2.429,2.429,0,0,1-.6-1.68A2.478,2.478,0,0,1,73.256,9.3a2.131,2.131,0,0,1,1.656-.676,2.089,2.089,0,0,1,1.616.666A2.409,2.409,0,0,1,77.11,10.959Zm-1.053.033a2.064,2.064,0,0,0-.272-1.083,1,1,0,0,0-.909-.546,1.015,1.015,0,0,0-.93.546,2.091,2.091,0,0,0-.272,1.1,2.064,2.064,0,0,0,.272,1.083,1.024,1.024,0,0,0,.92.546,1.011,1.011,0,0,0,.909-.556A2.042,2.042,0,0,0,76.057,10.992Z" transform="translate(-44.607 -6.622)" fill="#fff"/>
        <path id="Path_1442" data-name="Path 1442" d="M82.206,13.278h-.911l-.075-.526h-.028a1.562,1.562,0,0,1-1.333.629,1.375,1.375,0,0,1-1.041-.413,1.3,1.3,0,0,1-.357-.929,1.417,1.417,0,0,1,.7-1.277,3.632,3.632,0,0,1,1.968-.432v-.085q0-.9-.948-.9a2.122,2.122,0,0,0-1.189.338l-.206-.666a2.926,2.926,0,0,1,1.565-.394q1.789,0,1.791,1.887v1.68A7.128,7.128,0,0,0,82.206,13.278ZM81.153,11.71v-.7q-1.678-.029-1.678.919a.687.687,0,0,0,.195.535.71.71,0,0,0,.5.178,1.024,1.024,0,0,0,.62-.211.866.866,0,0,0,.368-.718Z" transform="translate(-44.793 -6.622)" fill="#fff"/>
        <path id="Path_1443" data-name="Path 1443" d="M88.14,13.212h-.9l-.047-.733h-.028a1.516,1.516,0,0,1-1.465.836,1.717,1.717,0,0,1-1.371-.647,2.523,2.523,0,0,1-.544-1.68,2.645,2.645,0,0,1,.591-1.793,1.818,1.818,0,0,1,1.408-.639,1.367,1.367,0,0,1,1.285.619h.019V6.556H88.1v5.427Q88.1,12.649,88.14,13.212Zm-1.051-1.924v-.761a1.493,1.493,0,0,0-.028-.319,1.155,1.155,0,0,0-.367-.615,1,1,0,0,0-.678-.249,1.041,1.041,0,0,0-.892.451A1.933,1.933,0,0,0,84.8,10.95a1.8,1.8,0,0,0,.312,1.1A1.044,1.044,0,0,0,86,12.5a.977.977,0,0,0,.8-.376A1.25,1.25,0,0,0,87.089,11.288Z" transform="translate(-44.965 -6.556)" fill="#fff"/>
        <path id="Path_1444" data-name="Path 1444" d="M97.1,10.959a2.5,2.5,0,0,1-.6,1.728,2.144,2.144,0,0,1-1.672.695,2.042,2.042,0,0,1-1.6-.667,2.429,2.429,0,0,1-.6-1.68A2.478,2.478,0,0,1,93.246,9.3,2.132,2.132,0,0,1,94.9,8.623a2.085,2.085,0,0,1,1.614.666A2.409,2.409,0,0,1,97.1,10.959Zm-1.051.033a2.064,2.064,0,0,0-.272-1.083,1,1,0,0,0-.911-.546,1.02,1.02,0,0,0-.93.546,2.091,2.091,0,0,0-.272,1.1,2.064,2.064,0,0,0,.272,1.083,1.037,1.037,0,0,0,1.831-.01A2.059,2.059,0,0,0,96.049,10.992Z" transform="translate(-45.249 -6.622)" fill="#fff"/>
        <path id="Path_1445" data-name="Path 1445" d="M102.75,13.278h-1.013V10.665q0-1.208-.92-1.208a.912.912,0,0,0-.732.332,1.173,1.173,0,0,0-.282.782v2.706H98.788V10.02q0-.6-.036-1.306h.89l.047.713h.028a1.481,1.481,0,0,1,.526-.551,1.718,1.718,0,0,1,.92-.256,1.455,1.455,0,0,1,1.061.413,2,2,0,0,1,.526,1.512Z" transform="translate(-45.445 -6.622)" fill="#fff"/>
        <path id="Path_1446" data-name="Path 1446" d="M109.844,9.441h-1.117v2.216c0,.563.2.845.591.845a1.786,1.786,0,0,0,.452-.047l.026.769a2.279,2.279,0,0,1-.788.113,1.213,1.213,0,0,1-.938-.366,1.789,1.789,0,0,1-.339-1.23v-2.3h-.667v-.76h.667V7.845l.994-.3V8.68h1.117v.761Z" transform="translate(-45.712 -6.588)" fill="#fff"/>
        <path id="Path_1447" data-name="Path 1447" d="M115.352,13.212h-1.015V10.618q0-1.227-.919-1.227a.968.968,0,0,0-.968.711,1.274,1.274,0,0,0-.047.365v2.744H111.39V6.556H112.4v2.75h.019a1.533,1.533,0,0,1,1.371-.75,1.414,1.414,0,0,1,1.043.413,2.078,2.078,0,0,1,.516,1.53Z" transform="translate(-45.851 -6.556)" fill="#fff"/>
        <path id="Path_1448" data-name="Path 1448" d="M121.072,10.781a2.448,2.448,0,0,1-.038.46h-3.042a1.33,1.33,0,0,0,.44,1.033,1.511,1.511,0,0,0,1,.319,3.361,3.361,0,0,0,1.23-.216l.159.7a3.82,3.82,0,0,1-1.531.282,2.211,2.211,0,0,1-1.666-.624,2.3,2.3,0,0,1-.6-1.675,2.611,2.611,0,0,1,.563-1.718,1.94,1.94,0,0,1,1.6-.732,1.7,1.7,0,0,1,1.492.732A2.436,2.436,0,0,1,121.072,10.781Zm-.968-.262a1.366,1.366,0,0,0-.2-.779.886.886,0,0,0-.807-.423.963.963,0,0,0-.807.413,1.536,1.536,0,0,0-.3.789H120.1Z" transform="translate(-46.032 -6.622)" fill="#fff"/>
      </g>
    </g>
  </g>
</svg>
