<svg xmlns="http://www.w3.org/2000/svg" xmlns:xlink="http://www.w3.org/1999/xlink" width="131.201" height="38.713" viewBox="0 0 131.201 38.713">
  <defs>
    <linearGradient id="linear-gradient" x1="2.472" y1="1.035" x2="2.361" y2="1.005" gradientUnits="objectBoundingBox">
      <stop offset="0" stop-color="#00a0ff"/>
      <stop offset="0.007" stop-color="#00a1ff"/>
      <stop offset="0.26" stop-color="#00beff"/>
      <stop offset="0.512" stop-color="#00d2ff"/>
      <stop offset="0.76" stop-color="#00dfff"/>
      <stop offset="1" stop-color="#00e3ff"/>
    </linearGradient>
    <linearGradient id="linear-gradient-2" x1="1.95" y1="1.879" x2="1.69" y2="1.879" gradientUnits="objectBoundingBox">
      <stop offset="0" stop-color="#ffe000"/>
      <stop offset="0.409" stop-color="#ffbd00"/>
      <stop offset="0.775" stop-color="orange"/>
      <stop offset="1" stop-color="#ff9c00"/>
    </linearGradient>
    <linearGradient id="linear-gradient-3" x1="1.926" y1="0.946" x2="1.835" y2="0.793" gradientUnits="objectBoundingBox">
      <stop offset="0" stop-color="#ff3a44"/>
      <stop offset="1" stop-color="#c31162"/>
    </linearGradient>
    <linearGradient id="linear-gradient-4" x1="1.856" y1="2.093" x2="1.897" y2="2.025" gradientUnits="objectBoundingBox">
      <stop offset="0" stop-color="#32a071"/>
      <stop offset="0.068" stop-color="#2da771"/>
      <stop offset="0.476" stop-color="#15cf74"/>
      <stop offset="0.801" stop-color="#06e775"/>
      <stop offset="1" stop-color="#00f076"/>
    </linearGradient>
  </defs>
  <g id="Google_Play_Store_badge_EN" transform="translate(0)">
    <path id="Path_1413" data-name="Path 1413" d="M126.34,38.713H4.861A4.864,4.864,0,0,1,0,33.874V4.839A4.857,4.857,0,0,1,4.861,0H126.34A4.859,4.859,0,0,1,131.2,4.839V33.874A4.865,4.865,0,0,1,126.34,38.713Z" transform="translate(0 0)" fill="#151515" fill-rule="evenodd"/>
    <path id="Path_1414" data-name="Path 1414" d="M126.34.775a4.086,4.086,0,0,1,4.086,4.064V33.874a4.079,4.079,0,0,1-4.086,4.064H4.861A4.086,4.086,0,0,1,.775,33.874V4.839A4.079,4.079,0,0,1,4.861.775Zm0-.775H4.861A4.864,4.864,0,0,0,0,4.839V33.874a4.857,4.857,0,0,0,4.861,4.839H126.34a4.859,4.859,0,0,0,4.861-4.839V4.839A4.865,4.865,0,0,0,126.34,0Z" transform="translate(0 0)" fill="#151515" fill-rule="evenodd"/>
    <path id="Path_1415" data-name="Path 1415" d="M1683.488,277.558a2.946,2.946,0,0,1-2.2-.91,3.1,3.1,0,0,1-.888-2.22,3.03,3.03,0,0,1,.888-2.218,2.936,2.936,0,0,1,2.2-.91,2.976,2.976,0,0,1,2.2.91,3.214,3.214,0,0,1,0,4.436A2.921,2.921,0,0,1,1683.488,277.558Zm-26.07,0a3.054,3.054,0,0,1-2.209-.9,3.128,3.128,0,0,1,2.209-5.358,3.077,3.077,0,0,1,1.233.256,2.492,2.492,0,0,1,.939.671l.058.07-.654.642-.067-.08a1.859,1.859,0,0,0-1.518-.654,2.1,2.1,0,0,0-1.513.618,2.346,2.346,0,0,0,0,3.215,2.213,2.213,0,0,0,3.068,0,1.671,1.671,0,0,0,.444-1.006h-2.1v-.9h3l.012.082a3.33,3.33,0,0,1,.043.454,2.718,2.718,0,0,1-.748,2A2.92,2.92,0,0,1,1657.419,277.558Zm34.662-.128h-.925l-2.831-4.53.024.816v3.712h-.924v-6h1.054l.029.046,2.662,4.267-.024-.813v-3.5h.934Zm-15.539,0h-.936v-5.1h-1.625v-.9h4.183v.9h-1.624v5.1Zm-3.323,0h-.934v-6h.934Zm-5.25,0h-.934v-5.1h-1.624v-.9h4.183v.9h-1.624Zm-3.15-.01h-3.582V271.43h3.582v.9h-2.645v1.646h2.387v.893h-2.387v1.646h2.645Zm17.156-1.393a2.066,2.066,0,0,0,1.513.628,2.015,2.015,0,0,0,1.513-.628,2.379,2.379,0,0,0,0-3.2,2.07,2.07,0,0,0-1.513-.628,2.005,2.005,0,0,0-1.511.628,2.381,2.381,0,0,0,0,3.2Z" transform="translate(-1614.371 -264.752)" fill="#fff"/>
    <path id="Path_1416" data-name="Path 1416" d="M1672.9,687.571a4.118,4.118,0,1,0,4.13,4.117A4.053,4.053,0,0,0,1672.9,687.571Zm0,6.6a2.5,2.5,0,1,1,2.322-2.5A2.383,2.383,0,0,1,1672.9,694.175Zm-9.01-6.6a4.118,4.118,0,1,0,4.13,4.117A4.053,4.053,0,0,0,1663.888,687.571Zm0,6.6a2.5,2.5,0,1,1,2.322-2.5A2.383,2.383,0,0,1,1663.888,694.175Zm-10.721-5.346v1.743h4.183a3.673,3.673,0,0,1-.946,2.194,4.268,4.268,0,0,1-3.227,1.279,4.647,4.647,0,0,1,0-9.292,4.466,4.466,0,0,1,3.15,1.248l1.236-1.236a6.076,6.076,0,0,0-4.376-1.764,6.389,6.389,0,1,0,0,12.777,5.849,5.849,0,0,0,4.463-1.8,5.782,5.782,0,0,0,1.516-4.086,5.4,5.4,0,0,0-.1-1.086h-5.9S1653.166,688.829,1653.166,688.829Zm43.853,1.357a3.826,3.826,0,0,0-3.526-2.624,3.912,3.912,0,0,0-3.881,4.117,4.024,4.024,0,0,0,4.086,4.118,4.088,4.088,0,0,0,3.43-1.827l-1.4-.936a2.341,2.341,0,0,1-2.022,1.139,2.1,2.1,0,0,1-2-1.248l5.506-2.281S1697.02,690.185,1697.02,690.185Zm-5.614,1.376a2.26,2.26,0,0,1,2.15-2.4,1.587,1.587,0,0,1,1.528.871Zm-4.473,3.99h1.808v-12.1h-1.808Zm-2.969-7.064h-.065a2.852,2.852,0,0,0-2.172-.924,4.117,4.117,0,0,0,0,8.228,2.844,2.844,0,0,0,2.172-.936h.065v.591c0,1.571-.84,2.418-2.194,2.418a2.283,2.283,0,0,1-2.076-1.463l-1.571.657a3.93,3.93,0,0,0,3.645,2.43c2.119,0,3.915-1.248,3.915-4.291v-7.388h-1.709v.678Zm-2.076,5.689a2.5,2.5,0,0,1,0-4.989,2.315,2.315,0,0,1,2.194,2.505A2.286,2.286,0,0,1,1681.889,694.175Zm23.6-10.721h-4.323v12.1h1.808V690.97h2.517a3.764,3.764,0,1,0,0-7.516Zm.053,5.826h-2.57v-4.151h2.57a2.076,2.076,0,1,1,0,4.151Zm11.163-1.731a3.405,3.405,0,0,0-3.227,1.849l1.6.666a1.719,1.719,0,0,1,1.646-.893,1.746,1.746,0,0,1,1.9,1.559v.128a4.052,4.052,0,0,0-1.883-.463c-1.73,0-3.485.946-3.485,2.72a2.8,2.8,0,0,0,3,2.667,2.544,2.544,0,0,0,2.3-1.183h.065v.937h1.743V690.9C1720.367,688.744,1718.764,687.55,1716.7,687.55Zm-.227,6.625c-.592,0-1.419-.29-1.419-1.033,0-.936,1.033-1.291,1.914-1.291a3.137,3.137,0,0,1,1.646.408A2.176,2.176,0,0,1,1716.474,694.175Zm10.25-6.367-2.076,5.247h-.065l-2.15-5.247h-1.946l3.227,7.335-1.839,4.076h1.883l4.965-11.411Zm-16.273,7.743h1.808v-12.1h-1.808Z" transform="translate(-1606.954 -666.516)" fill="#fff" fill-rule="evenodd"/>
    <path id="Path_1417" data-name="Path 1417" d="M400.542,299.465a1.961,1.961,0,0,0-.442,1.366v21.4a1.866,1.866,0,0,0,.451,1.354l.075.065,11.991-11.99v-.268l-12-11.993Z" transform="translate(-390.443 -292.174)" fill-rule="evenodd" fill="url(#linear-gradient)"/>
    <path id="Path_1418" data-name="Path 1418" d="M922.3,638.779l-4-4v-.28l4-4,.087.053,4.731,2.689c1.354.763,1.354,2.022,0,2.795l-4.731,2.689Z" transform="translate(-896.135 -615.283)" fill-rule="evenodd" fill="url(#linear-gradient-2)"/>
    <path id="Path_1419" data-name="Path 1419" d="M434.552,806.086,430.466,802,418.4,814.065a1.584,1.584,0,0,0,2.01.065l14.142-8.044" transform="translate(-408.301 -782.644)" fill-rule="evenodd" fill="url(#linear-gradient-3)"/>
    <path id="Path_1420" data-name="Path 1420" d="M434.552,294.837,420.411,286.8a1.568,1.568,0,0,0-2.011.065l12.066,12.053Z" transform="translate(-408.301 -279.566)" fill-rule="evenodd" fill="url(#linear-gradient-4)"/>
    <path id="Path_1421" data-name="Path 1421" d="M434.856,967.7l-14.045,7.979a1.594,1.594,0,0,1-1.936.01l-.075.075.075.065a1.6,1.6,0,0,0,1.936-.01l14.141-8.032Z" transform="translate(-408.691 -944.344)" fill-rule="evenodd" opacity="0.2"/>
    <path id="Path_1422" data-name="Path 1422" d="M1088.33,803.257,1083.5,806l.087.087,4.731-2.689a1.7,1.7,0,0,0,1.011-1.4A1.741,1.741,0,0,1,1088.33,803.257Z" transform="translate(-1057.348 -782.643)" fill-rule="evenodd" opacity="0.12"/>
    <path id="Path_1423" data-name="Path 1423" d="M402.552,286.774l18.872,10.721a1.778,1.778,0,0,1,1.011,1.258,1.7,1.7,0,0,0-1.011-1.4l-18.872-10.721c-1.354-.775-2.452-.128-2.452,1.419v.14C400.1,286.644,401.2,286.009,402.552,286.774Z" transform="translate(-390.443 -279.396)" fill="#fff" fill-rule="evenodd" opacity="0.25"/>
  </g>
</svg>
