<svg xmlns="http://www.w3.org/2000/svg" width="40" height="40" viewBox="0 0 40 40">
  <g id="Layer_2" data-name="Layer 2" transform="translate(-0.001)">
    <g id="_05.instagram" data-name="05.instagram" transform="translate(0.001)">
      <ellipse id="Ellipse_3505" data-name="Ellipse 3505" cx="3.212" cy="3.212" rx="3.212" ry="3.212" transform="translate(16.788 16.788)" fill="#eeedf0"/>
      <path id="Path_19223" data-name="Path 19223" d="M57.869,45.65H49.652a4.012,4.012,0,0,0-4.012,4.012v8.214a4.012,4.012,0,0,0,4.012,4.012h8.217a4.012,4.012,0,0,0,4.012-4.012V49.659A4.012,4.012,0,0,0,57.869,45.65ZM53.761,59.026a5.259,5.259,0,1,1,5.256-5.258A5.259,5.259,0,0,1,53.761,59.026Zm5.288-9.217a1.3,1.3,0,1,1,1.3-1.3A1.3,1.3,0,0,1,59.049,49.809Z" transform="translate(-33.761 -33.768)" fill="#eeedf0"/>
      <path id="Path_19224" data-name="Path 19224" d="M20,0A20,20,0,1,0,40,20,20,20,0,0,0,20,0ZM30,24.042A5.963,5.963,0,0,1,24.042,30H15.958A5.966,5.966,0,0,1,10,24.042V15.958A5.966,5.966,0,0,1,15.958,10h8.084A5.966,5.966,0,0,1,30,15.958Z" fill="#eeedf0"/>
    </g>
  </g>
</svg>
