<svg xmlns="http://www.w3.org/2000/svg" xmlns:xlink="http://www.w3.org/1999/xlink" width="174.29" height="224.499" viewBox="0 0 174.29 224.499">
  <defs>
    <filter id="Line_1183" x="74.927" y="92.151" width="77.718" height="69.78" filterUnits="userSpaceOnUse">
      <feOffset dy="3" input="SourceAlpha"/>
      <feGaussianBlur stdDeviation="3" result="blur"/>
      <feFlood flood-opacity="0.161"/>
      <feComposite operator="in" in2="blur"/>
      <feComposite in="SourceGraphic"/>
    </filter>
  </defs>
  <g id="Group_8855" data-name="Group 8855" transform="translate(-366.711 -3617.501)">
    <g id="Equifax_logo" transform="translate(366.711 3617.501)">
      <path id="Path_1010" data-name="Path 1010" d="M270.055,3.23a2.49,2.49,0,1,1-.013,0Zm0,.392a2.066,2.066,0,0,0-2,2.117,2.009,2.009,0,1,0,4.018,0,2.06,2.06,0,0,0-2-2.129ZM269.588,7.2H269.1V4.4a4.992,4.992,0,0,1,.79-.063,1.472,1.472,0,0,1,.866.208.67.67,0,0,1,.259.581.7.7,0,0,1-.543.682h0c.246.044.411.265.467.676a2.365,2.365,0,0,0,.177.689h-.467a2.1,2.1,0,0,1-.19-.714.518.518,0,0,0-.6-.493h-.31Zm0-1.548h.322c.366,0,.682-.133.682-.48,0-.246-.177-.493-.682-.493a2.218,2.218,0,0,0-.322,0Z" transform="translate(-98.512 -1.189)" fill="#fcf7f8"/>
      <path id="Path_1011" data-name="Path 1011" d="M0,24.622,5.554,0H27.515L26.492,4.966H14.412L13.5,9.123H24.04l-1.08,4.909H12.4L11.24,19.4H23.661l-1.093,5.225Z" transform="translate(0 0)" fill="#fcf7f8"/>
      <path id="Path_1012" data-name="Path 1012" d="M41.407,11.158c2.249-8.706,8.251-8.631,15.378-8.479,4.884.1,12.453.152,11.107,7.8,0,0-.3,2.173-.8,4.53H59.407L74.855,33.5H64.6L57.91,25.487a19.473,19.473,0,0,1-6.6.758c-4.05-.152-11.556,0-11.253-7.057a45.528,45.528,0,0,1,1.352-8.024m9.477-1.2a45.971,45.971,0,0,0-2.129,8.321c-.524,2.925,1.573,3.974,3.6,3.974a5.152,5.152,0,0,0,4.726-3,47.651,47.651,0,0,0,2.1-8.4c.746-4.65-3.6-3.974-3.6-3.974a4.869,4.869,0,0,0-4.726,3.077" transform="translate(-14.744 -0.973)" fill="#fcf7f8"/>
      <path id="Path_1013" data-name="Path 1013" d="M88.813,4.36h8.959S94.9,17,94.284,20.08a2.71,2.71,0,0,0,2.831,2.6s3.582.556,4.309-2.388L105.006,4.36h9.1s-3.443,15.757-4.044,17.691-3.6,4.581-10.431,4.953a33.366,33.366,0,0,1-5.554-.3L85.9,17.04S88.092,6.931,88.813,4.36" transform="translate(-31.627 -1.605)" fill="#fcf7f8"/>
      <path id="Path_1014" data-name="Path 1014" d="M133.132,4.36h9.155l-4.941,21.823H128.4Z" transform="translate(-47.275 -1.605)" fill="#fcf7f8"/>
      <path id="Path_1015" data-name="Path 1015" d="M157.269,26.183H148.24L152.991,4.36h19.7l-1.042,4.271H161.274l-.986,4.018h8.845l-.929,4.189h-8.757Z" transform="translate(-54.58 -1.605)" fill="#fcf7f8"/>
      <path id="Path_1016" data-name="Path 1016" d="M178.428,26.183H172.11L187.495,4.36h10.943l2.18,17.691,7.354-6.735L200.756,4.36h11.6l3.494,5.554L221.5,4.36h8.89L218.851,14.469l7.525,11.714H215.193L211.4,19.669l-6.255,6.514H191.627l-.423-4.77h-9.547Zm6.318-9.515h5.743l-.708-7.2Z" transform="translate(-63.369 -1.605)" fill="#fcf7f8"/>
    </g>
    <text id="_7_-_7.99_" data-name="7% - 7.99%" transform="translate(454 3838)" fill="#fff" font-size="20" font-family="Arial-BoldMT, Arial" font-weight="700"><tspan x="-51.694" y="0">7% - 7.99%</tspan></text>
    <g id="Group_7180" data-name="Group 7180" transform="translate(-17777.195 21821.256)">
      <g id="speedometer_1_copy" data-name="speedometer (1) copy" transform="translate(18143.908 -18139.006)">
        <path id="Path_1300" data-name="Path 1300" d="M24.47,315.119,12.014,312.6,0,315.119a86.652,86.652,0,0,0,11.674,43.564l21.2-12.252A62.156,62.156,0,0,1,24.47,315.119Z" transform="translate(0 -227.992)" fill="#f63"/>
        <path id="Path_1301" data-name="Path 1301" d="M32.843,204.218,23.654,193.6,11.674,192A86.652,86.652,0,0,0,0,235.564H24.47A62.7,62.7,0,0,1,32.843,204.218Z" transform="translate(0 -148.437)" fill="#f63"/>
        <path id="Path_1302" data-name="Path 1302" d="M78.408,119.469l-1.94-13.341L66.19,98.3A87.888,87.888,0,0,0,34.3,130.19l21.2,12.252A62.831,62.831,0,0,1,78.408,119.469Z" transform="translate(-22.626 -86.626)" fill="#f93"/>
        <path id="Path_1303" data-name="Path 1303" d="M171.564,88.47l4.833-12.8L171.564,64A86.653,86.653,0,0,0,128,75.674l12.252,21.2A62.156,62.156,0,0,1,171.564,88.47Z" transform="translate(-84.436 -64)" fill="#fc0"/>
        <path id="Path_1304" data-name="Path 1304" d="M287.345,96.843l10.721-8.372,1.5-12.8A86.653,86.653,0,0,0,256,64V88.47A62.7,62.7,0,0,1,287.345,96.843Z" transform="translate(-168.873 -64)" fill="#d7e023"/>
        <path id="Path_1305" data-name="Path 1305" d="M371.039,142.408l14.43-1.191,6.773-11.027a87.888,87.888,0,0,0-31.89-31.89L348.1,119.5A63,63,0,0,1,371.039,142.408Z" transform="translate(-229.628 -86.626)" fill="#80c200"/>
        <path id="Path_1306" data-name="Path 1306" d="M423.806,235.564l12.8,7.76,11.674-7.76A86.653,86.653,0,0,0,436.6,192l-21.2,12.252A62.157,62.157,0,0,1,423.806,235.564Z" transform="translate(-274.023 -148.437)" fill="#01b71d"/>
        <path id="Path_1307" data-name="Path 1307" d="M423.872,320a62.7,62.7,0,0,1-8.372,31.345L436.7,363.6a86.746,86.746,0,0,0,11.674-43.564h-24.5Z" transform="translate(-274.089 -232.873)" fill="#01b71d"/>
      </g>
      <g transform="matrix(1, 0, 0, 1, 18143.91, -18203.75)" filter="url(#Line_1183)">
        <line id="Line_1183-2" data-name="Line 1183" y1="44.732" x2="52.67" transform="translate(87.45 101.67)" fill="none" stroke="#ffbd41" stroke-linecap="round" stroke-width="5"/>
      </g>
    </g>
  </g>
</svg>
