<svg xmlns="http://www.w3.org/2000/svg" width="40" height="40" viewBox="0 0 40 40">
  <path id="_064-tiktok" data-name="064-tiktok" d="M20,0A20,20,0,1,0,40,20,20,20,0,0,0,20,0ZM30.034,15.3v2.708a9.45,9.45,0,0,1-5.782-1.965l.019,8.335a6.982,6.982,0,0,1-2.095,4.969,7.128,7.128,0,0,1-3.982,1.991,7.34,7.34,0,0,1-1.075.079,7.152,7.152,0,0,1-4.384-1.482,7.272,7.272,0,0,1-.674-.588,7.008,7.008,0,0,1-.316-9.664,7.151,7.151,0,0,1,5.374-2.4,7.34,7.34,0,0,1,1.075.08v3.787a3.371,3.371,0,1,0,2.319,3.2l0-5.582V8.58h3.729A5.773,5.773,0,0,0,30.023,14.3h.011v1Z" fill="#eeedf0"/>
</svg>
