<svg xmlns="http://www.w3.org/2000/svg" width="40" height="40" viewBox="0 0 40 40">
  <g id="Layer_2" data-name="Layer 2" transform="translate(-0.001)">
    <g id="_02.twitter" data-name="02.twitter" transform="translate(0.001)">
      <path id="Path_19220" data-name="Path 19220" d="M20,0A20,20,0,1,0,40,20,20,20,0,0,0,20,0Zm9.961,13.947a8.445,8.445,0,0,1-1.713,1.882.732.732,0,0,0-.263.571v.066a12,12,0,0,1-.774,4.174,12.224,12.224,0,0,1-2.276,3.816A11.245,11.245,0,0,1,20,27.716a12.342,12.342,0,0,1-3.879.6,11.841,11.841,0,0,1-5.946-1.6.342.342,0,0,1-.164-.38.329.329,0,0,1,.321-.247h.5a7.976,7.976,0,0,0,4.458-1.353A4.329,4.329,0,0,1,11.868,21.8a.226.226,0,0,1,.263-.292,3.968,3.968,0,0,0,.726.068h.092A4.321,4.321,0,0,1,10.432,17.6a.226.226,0,0,1,.334-.2,3.8,3.8,0,0,0,.984.382,4.321,4.321,0,0,1-.7-5.239.226.226,0,0,1,.371-.029,11.316,11.316,0,0,0,7.766,4.15h.021a.163.163,0,0,0,.158-.176,4.576,4.576,0,0,1,.1-1.579A4.187,4.187,0,0,1,22.284,11.9a4.629,4.629,0,0,1,1.366-.211A4.305,4.305,0,0,1,26.5,12.763a.558.558,0,0,0,.371.142.566.566,0,0,0,.132-.018,7.974,7.974,0,0,0,2.105-.868.224.224,0,0,1,.329.263,4.271,4.271,0,0,1-1.134,1.808,7.731,7.731,0,0,0,1.379-.466.226.226,0,0,1,.276.324Z" fill="#eeedf0"/>
    </g>
  </g>
</svg>
