<svg xmlns="http://www.w3.org/2000/svg" width="40" height="40" viewBox="0 0 40 40">
  <g id="Layer_2" data-name="Layer 2" transform="translate(0)">
    <g id="_04.youtube" data-name="04.youtube" transform="translate(0)">
      <path id="Path_19221" data-name="Path 19221" d="M66.91,61.44l6.342,3.894-6.342,3.9Z" transform="translate(-49.356 -45.334)" fill="#eeedf0"/>
      <path id="Path_19222" data-name="Path 19222" d="M20,0A20,20,0,1,0,40,20,20,20,0,0,0,20,0Zm9.532,24.813a3.558,3.558,0,0,1-2.942,2.147,62.321,62.321,0,0,1-13.179,0,3.558,3.558,0,0,1-2.942-2.147,24.984,24.984,0,0,1,0-9.624,3.536,3.536,0,0,1,2.953-2.147,62.322,62.322,0,0,1,13.179,0,3.553,3.553,0,0,1,2.942,2.147,24.984,24.984,0,0,1-.011,9.624Z" fill="#eeedf0"/>
    </g>
  </g>
</svg>
